<svg width="70" height="53" viewBox="0 0 70 53" fill="none" xmlns="http://www.w3.org/2000/svg">
<path d="M9.8134 40.8636H60.1866C65.4137 40.8636 69.814 36.8069 69.9934 31.6264C69.9978 31.4984 70 31.37 70 31.241C70 25.1404 65.013 20.1949 58.8613 20.1949C58.8571 20.1949 58.853 20.1952 58.8487 20.1952C58.8559 20.0321 58.8613 19.8686 58.8613 19.7038C58.8613 13.6032 53.8742 8.65771 47.7225 8.65771C45.8061 8.65771 44.0028 9.13799 42.4279 9.98335C39.8448 4.47419 34.3417 0.58391 27.89 0.270248C18.2985 -0.195949 10.1434 7.44842 10.0913 16.9717C10.0852 18.0836 10.1893 19.1701 10.391 20.2225C4.58832 20.6042 1.52588e-05 25.3898 1.52588e-05 31.2408C1.52588e-05 31.3698 0.00226878 31.4984 0.00663498 31.6263C0.186072 36.8069 4.58635 40.8636 9.8134 40.8636Z" fill="#F68521"/>
<path d="M58.8615 20.1947C58.8573 20.1947 58.8532 20.1952 58.849 20.1952C58.8562 20.0321 58.8615 19.8685 58.8615 19.7038C58.8615 13.6032 53.8745 8.65771 47.7228 8.65771C45.8063 8.65771 44.0031 9.13799 42.4282 9.98334C39.8451 4.47418 34.342 0.583762 27.8904 0.270241C22.6045 0.0133395 17.7556 2.22024 14.458 5.84672C17.1663 4.30841 20.3284 3.48827 23.6651 3.65052C28.957 3.90771 33.6107 6.57137 36.5383 10.5611C37.5796 11.9801 39.353 12.6795 41.072 12.3008C41.8528 12.1287 42.6645 12.038 43.4976 12.038C47.6507 12.038 51.2728 17.2962 53.1882 20.7129C54.0848 22.3123 55.6003 23.4659 57.3786 23.9123C62.2042 25.1238 65.7749 29.4588 65.7749 34.6209C65.7749 34.7501 65.7727 34.8785 65.7683 35.0064C65.7028 36.8966 65.0735 38.6359 64.0492 40.0843C67.4223 38.667 69.8611 35.4546 69.9937 31.6262C69.998 31.4983 70.0003 31.3697 70.0003 31.2407C70.0003 25.1401 65.0132 20.1947 58.8615 20.1947Z" fill="#DF6A03"/>
<path d="M33.4118 32.1385L25.6917 21.4395C25.3702 20.9941 24.7071 20.9941 24.3857 21.4395L16.6656 32.1385C16.2814 32.671 16.6618 33.4148 17.3186 33.4148H19.3435C19.7881 33.4148 20.1487 33.7754 20.1487 34.22V45.5785C20.1487 45.9089 20.4166 46.1767 20.7469 46.1767H29.3307C29.6611 46.1767 29.9288 45.9088 29.9288 45.5785V34.22C29.9288 33.7754 30.2893 33.4148 30.734 33.4148H32.759C33.4156 33.4148 33.796 32.671 33.4118 32.1385Z" fill="url(#paint0_linear_1_6618)"/>
<path d="M35.0531 41.7042L42.7732 52.4032C43.0946 52.8486 43.7577 52.8486 44.0791 52.4032L51.7994 41.7042C52.1836 41.1717 51.8031 40.4278 51.1464 40.4278H49.1215C48.6769 40.4278 48.3163 40.0674 48.3163 39.6226V28.2642C48.3163 27.9338 48.0485 27.666 47.7181 27.666H39.1343C38.8039 27.666 38.5361 27.9339 38.5361 28.2642V39.6226C38.5361 40.0673 38.1757 40.4278 37.7309 40.4278H35.706C35.0494 40.4278 34.6688 41.1717 35.0531 41.7042Z" fill="url(#paint1_linear_1_6618)"/>
<defs>
<linearGradient id="paint0_linear_1_6618" x1="19.112" y1="20.9395" x2="39.6636" y2="32.4143" gradientUnits="userSpaceOnUse">
<stop stop-color="#5B6FB5"/>
<stop offset="1" stop-color="#5B6FB5"/>
</linearGradient>
<linearGradient id="paint1_linear_1_6618" x1="37.4995" y1="27.5" x2="58.0512" y2="38.9749" gradientUnits="userSpaceOnUse">
<stop stop-color="#8B46FF"/>
<stop offset="1" stop-color="#8B46FF"/>
</linearGradient>
</defs>
</svg>
