<svg width="178" height="107" viewBox="0 0 178 107" fill="none" xmlns="http://www.w3.org/2000/svg">
<g clip-path="url(#clip0_1_6893)">
<path d="M67.6543 78.0739C83.9871 74.4712 107.151 69.3181 115.036 69.1731C126.469 68.9612 132.621 69.2679 133.098 70.651C133.575 72.0341 131.336 70.7402 120.43 71.4374C110.883 72.0508 103.996 72.207 68.7993 83.2493" fill="black"/>
<path d="M16.3213 57.4167L10.1137 71.4983C10.1137 71.4983 10.2316 74.4262 3.75456 73.5562C-2.72246 72.6862 0.908937 68.4924 1.99779 65.9047C3.08665 63.317 14.6712 38.3046 14.6712 38.3046C14.6712 38.3046 16.5402 31.6179 21.3839 32.354C26.2333 33.0902 25.4868 35.9177 25.919 39.7657C26.3511 43.6138 26.7777 55.7715 27.4232 54.8792C28.0686 53.9869 35.5054 35.3265 35.5054 35.3265C35.5054 35.3265 36.7009 31.5063 42.6054 31.6681C48.5099 31.8298 48.1058 33.4806 47.2415 35.5385C46.3771 37.5963 30.5999 75.1679 30.5999 75.1679C30.5999 75.1679 29.8871 78.0177 24.5439 78.1739C19.2006 78.3301 18.9761 76.8745 18.746 75.4635C18.5159 74.0526 16.3213 57.4055 16.3213 57.4055V57.4167Z" fill="black"/>
<path d="M82.5229 42.5263H95.8474C95.8474 42.5263 100.321 42.0077 98.0813 44.9021C95.8474 47.7965 77.3986 70.4555 73.4922 78.6033C73.4922 78.6033 85.4696 75.0285 86.3845 76.0993C87.2993 77.1701 84.2685 77.5047 81.0973 78.2185C77.9262 78.9324 70.1751 83.7843 67.6438 83.8735C65.1125 83.9627 58.7702 84.4145 60.9366 80.5106C63.1031 76.6124 75.5576 56.0057 85.3966 46.6532C85.3966 46.6532 86.9064 45.6773 83.6904 45.6438C80.4743 45.6104 78.3976 45.3984 79.0487 43.8648C79.6998 42.3311 82.5117 42.5375 82.5117 42.5375L82.5229 42.5263Z" fill="black"/>
<path d="M53.5055 40.597C53.5055 40.597 50.0313 39.727 47.8648 44.4116C45.6927 49.0962 40.6694 61.0197 40.6694 61.0197C40.6694 61.0197 36.2297 69.1285 45.8667 71.85C55.498 74.566 63.0414 69.9204 65.9712 65.6429C68.9011 61.3598 71.5222 56.9039 73.2789 51.2489C75.0357 45.5939 72.6503 45.3708 69.2378 44.8522C65.8253 44.3335 64.3492 46.4974 63.2267 49.2245C62.1041 51.946 54.3699 68.08 51.8442 67.3773C49.3185 66.6746 55.6271 49.4755 55.6271 49.4755L57.2772 44.3224C57.2772 44.3224 59.5896 40.4966 53.5055 40.6026V40.597Z" fill="black"/>
<path d="M104.659 38.4443H117.983C117.983 38.4443 122.457 37.9257 120.217 40.8201C117.983 43.7145 104.951 56.9987 101.044 65.141C101.044 65.141 113.022 61.5662 113.937 62.6369C114.852 63.7077 116.137 64.494 112.966 65.2079C109.8 65.9217 95.168 70.255 92.6367 70.3386C90.1054 70.4223 86.328 70.9465 88.4889 67.0483C90.6498 63.15 97.6937 51.9237 107.533 42.5656C107.533 42.5656 109.042 41.5897 105.826 41.5562C102.61 41.5228 100.534 41.3108 101.185 39.7772C101.836 38.2435 104.648 38.4499 104.648 38.4499L104.659 38.4443Z" fill="black"/>
<path d="M117.31 62.3638C117.31 62.3638 128.574 33.4921 134.978 23.5931C134.978 23.5931 136.286 20.4366 139.872 20.3027C143.459 20.1689 142.864 22.0149 142.157 24.2679C141.45 26.521 129.152 60.1051 127.558 63.4569C125.964 66.8086 123.018 67.2101 120.531 67.0317C118.045 66.8532 116.092 65.643 117.304 62.3638H117.31Z" fill="black"/>
<path d="M140.614 55.0412C140.614 55.0412 145.345 54.6006 147.545 50.8306C149.746 47.0606 146.513 47.1777 145.205 48.2373C143.892 49.297 134.99 61.9788 146.047 64.4327C146.047 64.4327 147.124 64.89 147.265 65.6819C147.405 66.4738 146.473 67.2881 144.436 67.2825C142.399 67.2825 130.96 68.7771 132.835 56.4075C134.709 44.0379 143.656 42.4151 147.029 42.5266C150.402 42.6381 155.835 45.2426 154.668 48.505C153.495 51.762 150.312 58.5546 140.193 58.1642L140.614 55.0468V55.0412Z" fill="black"/>
<path d="M157.435 46.3584C157.435 46.3584 157.906 42.778 163.62 42.8003C169.334 42.8226 170.905 42.6609 172.466 43.1349C174.026 43.609 179.358 46.4253 177.674 48.5111C175.996 50.5968 172.32 50.8032 170.782 49.6767C169.244 48.5501 167.42 48.0649 166.808 50.357C166.196 52.6491 163.918 57.317 162.363 62.5482C160.808 67.7793 156.166 67.032 156.166 67.032C156.166 67.032 153.029 67.8685 153.31 62.1466C153.59 56.4191 157.429 46.364 157.429 46.364L157.435 46.3584Z" fill="black"/>
<path d="M79.458 31.0188C79.458 31.0188 86.6478 38.9491 98.861 29.4572C98.861 29.4572 100.483 28.4757 99.8825 27.3994C99.1192 26.0274 97.8619 26.6911 97.2501 27.3157C96.6384 27.9403 89.095 36.2164 79.458 31.0188Z" fill="black"/>
<path d="M99.8204 31.1247C99.8204 31.1247 102.851 26.8751 99.7531 24.8897C99.7531 24.8897 98.6923 24.1814 97.8448 24.7838C96.7615 25.5478 97.2442 26.4066 97.7101 26.7803C98.1759 27.1595 100.23 26.903 99.8204 31.1303V31.1247Z" fill="black"/>
<path d="M81.7372 0C79.5314 0.178461 78.1676 1.11538 76.6858 1.87942C70.018 5.33152 65.6906 9.98266 62.6542 15.264C60.9479 18.2365 60.353 21.3317 60.0836 24.438C59.9713 25.7653 60.0274 27.0926 60.0106 28.4199C59.9769 30.4388 61.1275 32.1174 62.6766 33.6287C65.0339 35.9376 69.9618 35.4468 71.9768 32.7309C73.206 31.0801 73.5652 29.3178 73.4641 27.5443C73.3126 24.9399 72.9422 22.3522 72.8692 19.7478C72.7626 15.9834 72.9029 12.219 74.4688 8.46017C75.6868 5.54345 77.2808 2.82749 80.8392 0.842113C81.1479 0.674806 81.3331 0.390383 81.7372 0Z" fill="black"/>
<path d="M96.2628 -0.00028247C98.4685 0.178179 99.8324 1.1151 101.314 1.87913C107.982 5.33124 112.309 9.98238 115.346 15.2637C117.052 18.2362 117.647 21.3314 117.916 24.4377C118.029 25.765 117.973 27.0923 117.989 28.4196C118.023 30.4385 116.872 32.1171 115.323 33.6285C112.966 35.9373 108.038 35.4465 106.023 32.7306C104.794 31.0798 104.435 29.3175 104.536 27.5441C104.687 24.9396 105.058 22.352 105.131 19.7475C105.237 15.9831 105.097 12.2187 103.531 8.45988C102.313 5.54316 100.719 2.82721 97.1608 0.84183C96.8577 0.668946 96.6725 0.384524 96.2628 -0.00585938V-0.00028247Z" fill="black"/>
<path d="M67.0549 31.314C67.0549 31.314 70.8771 32.2677 71.4327 27.3879C71.9884 22.5081 72.6675 13.9196 72.8752 11.8172C73.0772 9.71466 74.8116 4.32737 77.6067 2.8216C77.6067 2.8216 78.5777 2.20257 78.4373 1.96276C78.297 1.72295 77.747 1.81218 76.4561 2.67103C75.1595 3.52429 66.8303 7.85755 64.6863 17.1096C62.5479 26.3673 63.7602 30.2767 67.0549 31.314Z" fill="black"/>
<path d="M110.946 31.314C110.946 31.314 107.123 32.2677 106.568 27.3879C106.012 22.5081 105.333 13.9196 105.125 11.8172C104.923 9.71466 103.189 4.32737 100.394 2.8216C100.394 2.8216 99.4227 2.20257 99.563 1.96276C99.7033 1.72295 100.253 1.81218 101.544 2.67103C102.835 3.52987 111.17 7.85755 113.314 17.1096C115.452 26.3673 114.24 30.2767 110.946 31.314Z" fill="black"/>
<path d="M83.9144 3.89804C82.8873 3.30689 81.5627 3.66381 80.9678 4.68439L80.0024 6.34073C79.4075 7.3613 79.7667 8.67745 80.7938 9.2686C81.8209 9.85976 83.1455 9.50283 83.7404 8.48226L84.7058 6.82592C85.3008 5.80534 84.9416 4.48919 83.9144 3.89804Z" fill="black"/>
<path d="M97.0261 4.68484C96.4312 3.66426 95.1066 3.31292 94.0794 3.89849C93.0523 4.48407 92.6987 5.8058 93.2881 6.82637L94.2534 8.48271C94.8484 9.50328 96.173 9.85463 97.2001 9.26905C98.2272 8.6779 98.5808 7.36175 97.9915 6.34118L97.0261 4.68484Z" fill="black"/>
<path d="M88.9996 27.0481C88.9267 27.0314 88.3317 26.2674 88.3317 26.2674C87.4056 24.9345 85.4693 23.2224 84.4758 22.5922C83.4824 21.962 79.4693 17.7849 83.1232 15.2586C87.0408 12.5482 88.9996 16.9874 88.9996 16.9874V27.0481Z" fill="black"/>
<path d="M89 27.0481C89.073 27.0314 89.6679 26.2674 89.6679 26.2674C90.594 24.9345 92.5304 23.2224 93.5238 22.5922C94.5453 21.9453 98.5303 17.7849 94.8765 15.2586C90.9588 12.5482 89 16.9874 89 16.9874V27.0481Z" fill="black"/>
<path d="M28.3945 97.7335C28.619 98.0681 28.9109 98.3191 29.2588 98.4808C29.6068 98.6425 29.9717 98.7206 30.3477 98.7206C30.5554 98.7206 30.7687 98.6872 30.9875 98.6258C31.2064 98.5589 31.4029 98.4641 31.5825 98.3358C31.7621 98.2076 31.908 98.0458 32.0203 97.8562C32.1325 97.6666 32.1887 97.4435 32.1887 97.1981C32.1887 96.8468 32.0764 96.5735 31.8519 96.3895C31.6274 96.2054 31.3468 96.0493 31.01 95.921C30.6732 95.7983 30.3084 95.6756 29.9155 95.5585C29.5226 95.4414 29.1578 95.2797 28.8211 95.0733C28.4843 94.867 28.2037 94.5881 27.9792 94.2368C27.7547 93.8854 27.6424 93.417 27.6424 92.8203C27.6424 92.5526 27.6985 92.2682 27.8164 91.967C27.9343 91.6658 28.1195 91.387 28.372 91.136C28.6246 90.8851 28.9445 90.6787 29.343 90.5058C29.7359 90.3385 30.213 90.2549 30.7687 90.2549C31.2738 90.2549 31.7565 90.3218 32.2167 90.4612C32.677 90.6006 33.0811 90.8795 33.4291 91.3033L32.4132 92.2235C32.256 91.9837 32.0371 91.7885 31.7509 91.638C31.4646 91.4874 31.1391 91.4149 30.7743 91.4149C30.4094 91.4149 30.14 91.4595 29.9099 91.5487C29.6798 91.638 29.4946 91.7551 29.3543 91.9001C29.2139 92.0451 29.1185 92.1956 29.0624 92.3574C29.0063 92.5191 28.9782 92.6753 28.9782 92.8091C28.9782 93.1995 29.0905 93.4951 29.315 93.7014C29.5395 93.9078 29.8201 94.0751 30.1569 94.2089C30.4936 94.3372 30.8585 94.4543 31.2513 94.5603C31.6442 94.6606 32.0091 94.8056 32.3458 94.9953C32.6826 95.1793 32.9576 95.4303 33.1877 95.7481C33.4122 96.0604 33.5245 96.4954 33.5245 97.0476C33.5245 97.4881 33.4403 97.8841 33.2719 98.241C33.1035 98.5924 32.8734 98.8935 32.5872 99.1333C32.3009 99.3731 31.9642 99.5627 31.5713 99.691C31.1784 99.8193 30.763 99.8862 30.3196 99.8862C29.7303 99.8862 29.169 99.7802 28.6358 99.5739C28.1083 99.3676 27.6873 99.0497 27.373 98.6147L28.4001 97.7335H28.3945Z" fill="black"/>
<path d="M36.1512 90.4834H42.1062V91.649H37.4028V94.3817H41.7807V95.5472H37.4028V98.4863H42.342V99.6518H36.1512V90.4834Z" fill="black"/>
<path d="M44.8954 90.4834H46.54L51.625 98.0178H51.6531V90.4834H52.9047V99.6518H51.3163L46.1807 92.1174H46.1527V99.6518H44.9011V90.4834H44.8954Z" fill="black"/>
<path d="M55.8404 90.4834H59.0565C59.7075 90.4834 60.28 90.5559 60.7683 90.7065C61.2566 90.857 61.6832 91.0522 62.048 91.2976C62.4072 91.543 62.7103 91.8274 62.9461 92.1453C63.1874 92.4632 63.3726 92.7922 63.5129 93.1268C63.6532 93.4615 63.7543 93.8017 63.8104 94.1363C63.8721 94.4709 63.9002 94.7832 63.9002 95.0676C63.9002 95.6532 63.7936 96.222 63.5747 96.7686C63.3558 97.3151 63.0359 97.8059 62.6093 98.2297C62.1827 98.6536 61.6551 98.9993 61.0265 99.2614C60.3979 99.518 59.6683 99.6518 58.8432 99.6518H55.8348V90.4834H55.8404ZM57.092 98.4863H58.6692C59.1968 98.4863 59.7019 98.4138 60.1734 98.2743C60.6449 98.1349 61.0602 97.9174 61.4194 97.633C61.773 97.3486 62.0593 96.9917 62.2669 96.5678C62.4746 96.1384 62.5812 95.642 62.5812 95.0732C62.5812 94.7776 62.5307 94.4374 62.4353 94.0415C62.3399 93.6511 62.1603 93.2774 61.8965 92.9205C61.6327 92.5636 61.2623 92.268 60.7964 92.0226C60.3249 91.7772 59.7188 91.6545 58.9723 91.6545H57.0977V98.4918L57.092 98.4863Z" fill="black"/>
<path d="M71.163 97.7335C71.3875 98.0681 71.6793 98.3191 72.0273 98.4808C72.3753 98.6425 72.7401 98.7206 73.1162 98.7206C73.3239 98.7206 73.5371 98.6872 73.756 98.6258C73.9749 98.5589 74.1714 98.4641 74.351 98.3358C74.5306 98.2076 74.6765 98.0458 74.7888 97.8562C74.901 97.6666 74.9571 97.4435 74.9571 97.1981C74.9571 96.8468 74.8449 96.5735 74.6204 96.3895C74.3959 96.2054 74.1152 96.0493 73.7785 95.921C73.4417 95.7983 73.0769 95.6756 72.684 95.5585C72.2911 95.4414 71.9263 95.2797 71.5895 95.0733C71.2528 94.867 70.9722 94.5881 70.7476 94.2368C70.5231 93.8854 70.4109 93.417 70.4109 92.8203C70.4109 92.5526 70.467 92.2682 70.5849 91.967C70.7027 91.6658 70.888 91.387 71.1405 91.136C71.3931 90.8851 71.713 90.6787 72.1115 90.5058C72.5044 90.3385 72.9815 90.2549 73.5371 90.2549C74.0423 90.2549 74.525 90.3218 74.9852 90.4612C75.4454 90.6006 75.8496 90.8795 76.1975 91.3033L75.1816 92.2235C75.0245 91.9837 74.8056 91.7885 74.5194 91.638C74.2331 91.4874 73.9076 91.4149 73.5428 91.4149C73.1779 91.4149 72.9085 91.4595 72.6784 91.5487C72.4483 91.638 72.2631 91.7551 72.1227 91.9001C71.9824 92.0451 71.887 92.1956 71.8309 92.3574C71.7748 92.5191 71.7467 92.6753 71.7467 92.8091C71.7467 93.1995 71.8589 93.4951 72.0835 93.7014C72.308 93.9078 72.5886 94.0751 72.9254 94.2089C73.2621 94.3372 73.6269 94.4543 74.0198 94.5603C74.4127 94.6606 74.7775 94.8056 75.1143 94.9953C75.4511 95.1793 75.7261 95.4303 75.9562 95.7481C76.1807 96.0604 76.293 96.4954 76.293 97.0476C76.293 97.4881 76.2088 97.8841 76.0404 98.241C75.872 98.5924 75.6419 98.8935 75.3556 99.1333C75.0694 99.3731 74.7326 99.5627 74.3397 99.691C73.9469 99.8193 73.5315 99.8862 73.0881 99.8862C72.4988 99.8862 71.9375 99.7802 71.4043 99.5739C70.8767 99.3676 70.4558 99.0497 70.1415 98.6147L71.1686 97.7335H71.163Z" fill="black"/>
<path d="M83.1577 99.8806C82.4561 99.8806 81.805 99.7579 81.2157 99.5126C80.6263 99.2672 80.1212 98.927 79.6946 98.4975C79.2737 98.0681 78.9425 97.5551 78.7068 96.9695C78.4655 96.3839 78.3476 95.7481 78.3476 95.0678C78.3476 94.3874 78.4655 93.7516 78.7068 93.166C78.9481 92.5805 79.2737 92.0674 79.6946 91.638C80.1156 91.2085 80.6207 90.8683 81.2157 90.623C81.805 90.3776 82.4561 90.2549 83.1577 90.2549C83.8592 90.2549 84.5103 90.3776 85.0996 90.623C85.689 90.8683 86.1941 91.2085 86.6207 91.638C87.0416 92.0674 87.3728 92.5805 87.6085 93.166C87.8498 93.7516 87.9677 94.3874 87.9677 95.0678C87.9677 95.7481 87.8498 96.3839 87.6085 96.9695C87.3671 97.5551 87.0416 98.0681 86.6207 98.4975C86.1997 98.927 85.6946 99.2672 85.0996 99.5126C84.5047 99.7579 83.8592 99.8806 83.1577 99.8806ZM83.1577 98.715C83.6852 98.715 84.1679 98.6202 84.5889 98.425C85.0098 98.2299 85.3803 97.9677 85.6834 97.6443C85.9864 97.3152 86.2222 96.9304 86.3849 96.4843C86.5477 96.0381 86.6319 95.5641 86.6319 95.0678C86.6319 94.5714 86.5477 94.0974 86.3849 93.6512C86.2222 93.2051 85.9864 92.8203 85.6834 92.4912C85.3803 92.1622 85.0154 91.9001 84.5889 91.7049C84.1623 91.5097 83.6852 91.4149 83.1577 91.4149C82.6301 91.4149 82.1474 91.5097 81.7264 91.7049C81.2999 91.9001 80.935 92.1622 80.632 92.4912C80.3289 92.8203 80.0931 93.2051 79.9304 93.6512C79.7676 94.0974 79.6834 94.5714 79.6834 95.0678C79.6834 95.5641 79.7676 96.0437 79.9304 96.4843C80.0931 96.9249 80.3289 97.3152 80.632 97.6443C80.935 97.9733 81.2999 98.2354 81.7264 98.425C82.153 98.6202 82.6301 98.715 83.1577 98.715Z" fill="black"/>
<path d="M90.4537 90.4834H92.3171L95.2469 97.4266H95.2974L98.2048 90.4834H100.068V99.6518H98.8166V92.1174H98.7885L95.6735 99.6518H94.8372L91.7222 92.1174H91.6941V99.6518H90.4425V90.4834H90.4537Z" fill="black"/>
<path d="M103.133 90.4834H109.088V91.649H104.384V94.3817H108.762V95.5472H104.384V98.4863H109.323V99.6518H103.133V90.4834Z" fill="black"/>
<path d="M116.283 90.4834H117.535V98.4863H121.772V99.6518H116.289V90.4834H116.283Z" fill="black"/>
<path d="M128.064 99.8806C127.362 99.8806 126.711 99.7579 126.122 99.5126C125.533 99.2672 125.027 98.927 124.601 98.4975C124.18 98.0681 123.849 97.5551 123.613 96.9695C123.372 96.3839 123.254 95.7481 123.254 95.0678C123.254 94.3874 123.372 93.7516 123.613 93.166C123.854 92.5805 124.18 92.0674 124.601 91.638C125.022 91.2085 125.527 90.8683 126.122 90.623C126.711 90.3776 127.362 90.2549 128.064 90.2549C128.765 90.2549 129.417 90.3776 130.006 90.623C130.595 90.8683 131.1 91.2085 131.527 91.638C131.948 92.0674 132.279 92.5805 132.52 93.166C132.762 93.7516 132.88 94.3874 132.88 95.0678C132.88 95.7481 132.762 96.3839 132.52 96.9695C132.279 97.5551 131.953 98.0681 131.527 98.4975C131.106 98.927 130.601 99.2672 130.006 99.5126C129.417 99.7579 128.765 99.8806 128.064 99.8806ZM128.064 98.715C128.591 98.715 129.069 98.6202 129.495 98.425C129.922 98.2299 130.287 97.9677 130.59 97.6443C130.893 97.3208 131.128 96.9304 131.291 96.4843C131.454 96.0381 131.538 95.5641 131.538 95.0678C131.538 94.5714 131.454 94.0974 131.291 93.6512C131.128 93.2051 130.893 92.8203 130.59 92.4912C130.287 92.1622 129.922 91.9001 129.495 91.7049C129.069 91.5097 128.591 91.4149 128.064 91.4149C127.536 91.4149 127.054 91.5097 126.633 91.7049C126.212 91.9001 125.841 92.1622 125.538 92.4912C125.235 92.8203 124.999 93.2051 124.837 93.6512C124.674 94.0974 124.59 94.5714 124.59 95.0678C124.59 95.5641 124.674 96.0437 124.837 96.4843C124.999 96.9304 125.235 97.3152 125.538 97.6443C125.841 97.9733 126.206 98.2354 126.633 98.425C127.059 98.6147 127.536 98.715 128.064 98.715Z" fill="black"/>
<path d="M134.188 90.4834H135.636L138.347 97.9397H138.375L141.192 90.4834H142.562L138.925 99.6518H137.752L134.193 90.4834H134.188Z" fill="black"/>
<path d="M144.442 90.4834H150.397V91.649H145.694V94.3817H150.072V95.5472H145.694V98.4863H150.633V99.6518H144.442V90.4834Z" fill="black"/>
</g>
<defs>
<clipPath id="clip0_1_6893">
<rect width="178" height="106.123" fill="white"/>
</clipPath>
</defs>
</svg>
