<svg width="15" height="15" viewBox="0 0 15 15" fill="none" xmlns="http://www.w3.org/2000/svg">
<path d="M4.78229 5.10866C5.26252 6.10887 5.91717 7.04631 6.74623 7.87538C7.5753 8.70445 8.51274 9.35909 9.51295 9.83932C9.59899 9.88063 9.642 9.90128 9.69644 9.91715C9.88987 9.97354 10.1274 9.93303 10.2912 9.81573C10.3373 9.78272 10.3768 9.74328 10.4556 9.66441C10.6969 9.42319 10.8175 9.30258 10.9388 9.22372C11.3961 8.92634 11.9858 8.92634 12.4432 9.22372C12.5644 9.30258 12.6851 9.42319 12.9263 9.66441L13.0607 9.79886C13.4274 10.1656 13.6108 10.3489 13.7104 10.5458C13.9084 10.9374 13.9084 11.3999 13.7104 11.7915C13.6108 11.9884 13.4274 12.1717 13.0607 12.5384L12.952 12.6472C12.5865 13.0126 12.4038 13.1953 12.1554 13.3349C11.8798 13.4897 11.4516 13.6011 11.1355 13.6001C10.8505 13.5993 10.6558 13.544 10.2664 13.4335C8.17337 12.8394 6.19839 11.7186 4.55072 10.0709C2.90306 8.42322 1.7822 6.44825 1.18815 4.35526C1.07761 3.9658 1.02234 3.77107 1.02149 3.48615C1.02055 3.16998 1.13189 2.74185 1.28673 2.4662C1.42628 2.21778 1.60899 2.03507 1.97443 1.66964L2.08319 1.56087C2.44988 1.19419 2.63322 1.01085 2.83013 0.91125C3.22173 0.713177 3.68421 0.713177 4.07581 0.91125C4.27272 1.01085 4.45606 1.19419 4.82275 1.56087L4.9572 1.69533C5.19843 1.93655 5.31904 2.05716 5.39789 2.17845C5.69527 2.63583 5.69527 3.22548 5.39789 3.68286C5.31904 3.80414 5.19843 3.92475 4.9572 4.16597C4.87833 4.24485 4.83889 4.28428 4.80589 4.33038C4.68858 4.49421 4.64808 4.73174 4.70447 4.92518C4.72033 4.97961 4.74099 5.02263 4.78229 5.10866Z" stroke="white" stroke-width="1.37996" stroke-linecap="round" stroke-linejoin="round"/>
</svg>
