<svg width="28" height="29" viewBox="0 0 28 29" fill="none" xmlns="http://www.w3.org/2000/svg">
<path fill-rule="evenodd" clip-rule="evenodd" d="M14 0.5C21.728 0.5 28 6.772 28 14.5C28 22.228 21.728 28.5 14 28.5C6.272 28.5 0 22.228 0 14.5C0 6.772 6.272 0.5 14 0.5Z" fill="#DD6C09"/>
<path fill-rule="evenodd" clip-rule="evenodd" d="M14 1.39648C21.28 1.39648 27.104 7.27648 27.104 14.5005C27.104 21.7805 21.224 27.6045 14 27.6045C6.72 27.6045 0.895996 21.7245 0.895996 14.5005C0.895996 7.22048 6.776 1.39648 14 1.39648Z" fill="#F68622"/>
<path fill-rule="evenodd" clip-rule="evenodd" d="M14 2.45996C20.664 2.45996 26.04 7.83596 26.04 14.5C26.04 21.164 20.664 26.54 14 26.54C7.33596 26.54 1.95996 21.164 1.95996 14.5C1.95996 7.83596 7.33596 2.45996 14 2.45996Z" fill="#F9A962"/>
<path fill-rule="evenodd" clip-rule="evenodd" d="M13.9999 5.82031C18.7599 5.82031 22.6799 9.68431 22.6799 14.5003C22.6799 19.2603 18.8159 23.1803 13.9999 23.1803C9.23995 23.1803 5.31995 19.3163 5.31995 14.5003C5.31995 9.74031 9.18395 5.82031 13.9999 5.82031Z" fill="#F68521"/>
<path fill-rule="evenodd" clip-rule="evenodd" d="M14 2.4043C20.496 2.4043 25.76 7.6683 25.76 14.1643C25.76 14.6123 25.76 15.1163 25.704 15.5643C25.032 9.7403 20.048 5.2043 14 5.2043C7.95199 5.2043 3.02399 9.7403 2.29599 15.5643C2.23999 15.1163 2.23999 14.6683 2.23999 14.1643C2.23999 7.6683 7.50399 2.4043 14 2.4043Z" fill="#FABE89"/>
<path fill-rule="evenodd" clip-rule="evenodd" d="M6.49597 14.5003C6.49597 13.5483 7.27997 12.8203 8.17597 12.8203H19.712C20.664 12.8203 21.392 13.6043 21.392 14.5003C21.392 15.4523 20.608 16.1803 19.712 16.1803H8.17597C7.22397 16.1803 6.49597 15.3963 6.49597 14.5003Z" fill="#FEFEFE"/>
</svg>
