<svg width="220" height="131" viewBox="0 0 220 131" fill="none" xmlns="http://www.w3.org/2000/svg">
<g clip-path="url(#clip0_1_6470)">
<path d="M83.6191 96.3758C103.806 91.9286 132.435 85.5676 142.181 85.3886C156.312 85.127 163.915 85.5056 164.504 87.2129C165.094 88.9202 162.326 87.323 148.848 88.1836C137.048 88.9408 128.536 89.1336 85.0342 102.764" fill="#F68521"/>
<path d="M20.1728 70.8766L12.5005 88.2593C12.5005 88.2593 12.6462 91.8735 4.64086 90.7995C-3.36443 89.7256 1.12381 84.5487 2.46958 81.3544C3.81536 78.1601 18.1333 47.2843 18.1333 47.2843C18.1333 47.2843 20.4433 39.0301 26.43 39.9389C32.4235 40.8476 31.5009 44.3379 32.0351 49.088C32.5692 53.8381 33.0964 68.8457 33.8942 67.7443C34.6919 66.6428 43.8835 43.6082 43.8835 43.6082C43.8835 43.6082 45.361 38.8925 52.6588 39.0921C59.9565 39.2917 59.457 41.3295 58.3887 43.8698C57.3204 46.41 37.8205 92.7891 37.8205 92.7891C37.8205 92.7891 36.9395 96.3069 30.3355 96.4997C23.7315 96.6924 23.454 94.8957 23.1696 93.154C22.8852 91.4122 20.1728 70.8628 20.1728 70.8628V70.8766Z" fill="#F68521"/>
<path d="M101.994 52.4957H118.463C118.463 52.4957 123.992 51.8555 121.224 55.4284C118.463 59.0013 95.6609 86.972 90.8327 97.0298C90.8327 97.0298 105.636 92.617 106.767 93.9388C107.898 95.2606 104.152 95.6736 100.232 96.5548C96.313 97.436 86.733 103.425 83.6044 103.535C80.4758 103.646 72.637 104.203 75.3147 99.3842C77.9923 94.5721 93.3855 69.1349 105.546 57.5901C105.546 57.5901 107.412 56.3853 103.437 56.344C99.4624 56.3027 96.8957 56.0411 97.7004 54.148C98.5051 52.2548 101.98 52.5095 101.98 52.5095L101.994 52.4957Z" fill="#F68521"/>
<path d="M66.1304 50.1139C66.1304 50.1139 61.8364 49.04 59.1587 54.8227C56.4741 60.6055 50.2655 75.324 50.2655 75.324C50.2655 75.324 44.7783 85.3336 56.6891 88.6931C68.593 92.0458 77.9164 86.3112 81.5375 81.031C85.1586 75.7439 88.3982 70.2434 90.5694 63.2628C92.7407 56.2822 89.7925 56.0068 85.5748 55.3666C81.3571 54.7264 79.5327 57.3974 78.1453 60.7638C76.7579 64.1233 67.1987 84.0394 64.077 83.172C60.9554 82.3046 68.7526 61.0736 68.7526 61.0736L70.7921 54.7126C70.7921 54.7126 73.6501 49.99 66.1304 50.1208V50.1139Z" fill="#F68521"/>
<path d="M129.354 47.4567H145.823C145.823 47.4567 151.352 46.8164 148.584 50.3894C145.823 53.9623 129.715 70.3605 124.887 80.4115C124.887 80.4115 139.691 75.9987 140.821 77.3205C141.952 78.6422 143.541 79.6129 139.621 80.4941C135.709 81.3753 117.624 86.7243 114.495 86.8276C111.367 86.9308 106.698 87.578 109.369 82.7659C112.04 77.9538 120.746 64.0959 132.906 52.5441C132.906 52.5441 134.772 51.3394 130.797 51.2981C126.822 51.2568 124.256 50.9952 125.06 49.102C125.865 47.2088 129.341 47.4636 129.341 47.4636L129.354 47.4567Z" fill="#F68521"/>
<path d="M144.99 76.983C144.99 76.983 158.912 41.3434 166.827 29.1239C166.827 29.1239 168.444 25.2274 172.876 25.0622C177.309 24.8969 176.574 27.1756 175.7 29.9569C174.826 32.7381 159.627 74.1949 157.657 78.3323C155.687 82.4698 152.045 82.9654 148.972 82.7451C145.898 82.5248 143.484 81.031 144.983 76.983H144.99Z" fill="#F68521"/>
<path d="M173.793 67.9438C173.793 67.9438 179.641 67.3999 182.36 62.7462C185.079 58.0924 181.084 58.237 179.467 59.545C177.844 60.853 166.842 76.5078 180.508 79.5368C180.508 79.5368 181.84 80.1013 182.013 81.0789C182.187 82.0564 181.035 83.0615 178.517 83.0547C175.999 83.0547 161.861 84.8996 164.178 69.6304C166.495 54.3612 177.553 52.3579 181.722 52.4956C185.891 52.6333 192.606 55.8482 191.163 59.8755C189.713 63.8959 185.78 72.2808 173.273 71.799L173.793 67.9507V67.9438Z" fill="#F68521"/>
<path d="M194.583 57.2249C194.583 57.2249 195.165 52.8053 202.227 52.8328C209.289 52.8603 211.231 52.6607 213.16 53.2458C215.088 53.831 221.678 57.3075 219.597 59.8822C217.523 62.4569 212.979 62.7117 211.079 61.321C209.178 59.9304 206.923 59.3315 206.167 62.1609C205.411 64.9903 202.595 70.7524 200.673 77.2098C198.752 83.6673 193.015 82.7448 193.015 82.7448C193.015 82.7448 189.137 83.7774 189.484 76.7142C189.831 69.6441 194.576 57.2318 194.576 57.2318L194.583 57.2249Z" fill="#F68521"/>
<path d="M98.2071 38.2904C98.2071 38.2904 107.093 48.0798 122.188 36.3629C122.188 36.3629 124.193 35.1512 123.451 33.8226C122.507 32.1291 120.954 32.9483 120.197 33.7193C119.441 34.4903 110.118 44.7065 98.2071 38.2904Z" fill="#5B6FB5"/>
<path d="M123.375 38.421C123.375 38.421 127.121 33.1752 123.292 30.7244C123.292 30.7244 121.981 29.8501 120.933 30.5936C119.594 31.5367 120.191 32.5969 120.767 33.0581C121.342 33.5263 123.881 33.2096 123.375 38.4278V38.421Z" fill="#5B6FB5"/>
<path d="M101.024 0C98.2977 0.220295 96.612 1.37685 94.7806 2.31999C86.5395 6.58132 81.1911 12.3228 77.4381 18.8421C75.3293 22.5114 74.594 26.3322 74.261 30.1667C74.1223 31.8051 74.1916 33.4436 74.1708 35.082C74.1292 37.5741 75.5513 39.6463 77.4659 41.5119C80.3794 44.362 86.4701 43.7562 88.9605 40.4035C90.4797 38.3658 90.9237 36.1904 90.7988 34.0012C90.6115 30.7863 90.1537 27.592 90.0635 24.3771C89.9317 19.7302 90.1051 15.0833 92.0405 10.4434C93.5458 6.84293 95.516 3.4903 99.914 1.03952C100.296 0.832992 100.524 0.481896 101.024 0Z" fill="#5B6FB5"/>
<path d="M118.977 4.82914e-05C121.703 0.220344 123.388 1.37689 125.22 2.32003C133.461 6.58137 138.809 12.3228 142.562 18.8422C144.671 22.5115 145.407 26.3322 145.74 30.1667C145.878 31.8052 145.809 33.4436 145.83 35.0821C145.871 37.5742 144.449 39.6463 142.535 41.5119C139.621 44.362 133.53 43.7562 131.04 40.4036C129.521 38.3659 129.077 36.1904 129.202 34.0013C129.389 30.7863 129.847 27.592 129.937 24.3771C130.069 19.7302 129.895 15.0834 127.96 10.4434C126.455 6.84297 124.485 3.49035 120.086 1.03957C119.712 0.826156 119.483 0.47506 118.977 -0.00683594V4.82914e-05Z" fill="#5B6FB5"/>
<path d="M82.8767 38.655C82.8767 38.655 87.6008 39.8322 88.2876 33.8085C88.9743 27.7848 89.8137 17.1831 90.0704 14.5878C90.3201 11.9924 92.4637 5.34225 95.9183 3.48351C95.9183 3.48351 97.1184 2.71936 96.945 2.42333C96.7715 2.12731 96.0917 2.23746 94.4962 3.29763C92.8937 4.35092 82.5992 9.69997 79.9493 21.1209C77.3063 32.5487 78.8047 37.3746 82.8767 38.655Z" fill="#5B6FB5"/>
<path d="M137.124 38.655C137.124 38.655 132.4 39.8322 131.714 33.8085C131.027 27.7848 130.187 17.1831 129.931 14.5878C129.681 11.9924 127.537 5.34225 124.083 3.48351C124.083 3.48351 122.883 2.71936 123.056 2.42333C123.23 2.12731 123.909 2.23746 125.505 3.29763C127.1 4.3578 137.402 9.69997 140.052 21.1209C142.695 32.5487 141.196 37.3746 137.124 38.655Z" fill="#5B6FB5"/>
<path d="M103.715 4.8117C102.446 4.08198 100.808 4.52257 100.073 5.78238L98.88 7.827C98.1446 9.08681 98.5886 10.7115 99.8581 11.4412C101.128 12.1709 102.765 11.7304 103.5 10.4705L104.693 8.42592C105.428 7.16611 104.985 5.54143 103.715 4.8117Z" fill="#5B6FB5"/>
<path d="M119.92 5.78323C119.184 4.52341 117.547 4.08971 116.278 4.81255C115.008 5.53539 114.571 7.16696 115.3 8.42677L116.493 10.4714C117.228 11.7312 118.865 12.1649 120.135 11.4421C121.404 10.7123 121.841 9.08766 121.113 7.82784L119.92 5.78323Z" fill="#5B6FB5"/>
<path d="M110 33.3884C109.909 33.3678 109.174 32.4246 109.174 32.4246C108.03 30.7793 105.636 28.6658 104.408 27.8879C103.181 27.11 98.2206 21.9537 102.737 18.8352C107.579 15.4894 110 20.9693 110 20.9693V33.3884Z" fill="#5B6FB5"/>
<path d="M110 33.3884C110.09 33.3678 110.825 32.4246 110.825 32.4246C111.97 30.7793 114.363 28.6658 115.591 27.8879C116.854 27.0894 121.779 21.9537 117.263 18.8352C112.421 15.4894 110 20.9693 110 20.9693V33.3884Z" fill="#5B6FB5"/>
<path d="M35.0946 120.644C35.372 121.057 35.7328 121.367 36.1629 121.566C36.593 121.766 37.0439 121.862 37.5086 121.862C37.7653 121.862 38.0289 121.821 38.2995 121.745C38.57 121.663 38.8128 121.546 39.0348 121.387C39.2568 121.229 39.4371 121.029 39.5759 120.795C39.7146 120.561 39.784 120.286 39.784 119.983C39.784 119.549 39.6452 119.212 39.3678 118.985C39.0903 118.758 38.7434 118.565 38.3272 118.406C37.911 118.255 37.4601 118.104 36.9745 117.959C36.4889 117.814 36.038 117.615 35.6218 117.36C35.2056 117.105 34.8587 116.761 34.5812 116.327C34.3037 115.894 34.165 115.315 34.165 114.579C34.165 114.248 34.2344 113.897 34.3801 113.526C34.5257 113.154 34.7547 112.81 35.0668 112.5C35.379 112.19 35.7744 111.935 36.2669 111.722C36.7525 111.515 37.3422 111.412 38.0289 111.412C38.6532 111.412 39.2498 111.495 39.8187 111.667C40.3875 111.839 40.887 112.183 41.3171 112.706L40.0615 113.842C39.8672 113.546 39.5967 113.305 39.2429 113.119C38.8891 112.934 38.4868 112.844 38.0359 112.844C37.5849 112.844 37.252 112.899 36.9676 113.009C36.6831 113.119 36.4542 113.264 36.2808 113.443C36.1074 113.622 35.9894 113.808 35.9201 114.007C35.8507 114.207 35.816 114.4 35.816 114.565C35.816 115.047 35.9548 115.412 36.2322 115.667C36.5097 115.921 36.8566 116.128 37.2728 116.293C37.689 116.451 38.1399 116.596 38.6255 116.727C39.1111 116.851 39.562 117.03 39.9782 117.264C40.3944 117.491 40.7343 117.801 41.0188 118.193C41.2962 118.579 41.435 119.116 41.435 119.797C41.435 120.341 41.3309 120.83 41.1228 121.27C40.9147 121.704 40.6303 122.076 40.2765 122.372C39.9227 122.668 39.5065 122.902 39.0209 123.06C38.5353 123.219 38.022 123.301 37.474 123.301C36.7456 123.301 36.0519 123.17 35.3929 122.916C34.7408 122.661 34.2205 122.269 33.832 121.732L35.1015 120.644H35.0946Z" fill="#5B6FB5"/>
<path d="M44.6815 111.694H52.0417V113.133H46.2285V116.506H51.6393V117.945H46.2285V121.573H52.333V123.012H44.6815V111.694Z" fill="#5B6FB5"/>
<path d="M55.4893 111.694H57.5219L63.8068 120.995H63.8415V111.694H65.3884V123.012H63.4252L57.0779 113.711H57.0432V123.012H55.4963V111.694H55.4893Z" fill="#5B6FB5"/>
<path d="M69.0165 111.694H72.9914C73.7961 111.694 74.5037 111.784 75.1072 111.97C75.7107 112.156 76.2379 112.397 76.6888 112.699C77.1328 113.002 77.5074 113.353 77.7988 113.746C78.097 114.138 78.326 114.544 78.4994 114.957C78.6728 115.371 78.7977 115.79 78.8671 116.204C78.9434 116.617 78.978 117.002 78.978 117.353C78.978 118.076 78.8462 118.778 78.5757 119.453C78.3052 120.128 77.9098 120.733 77.3825 121.257C76.8553 121.78 76.2033 122.207 75.4263 122.53C74.6494 122.847 73.7475 123.012 72.7278 123.012H69.0096V111.694H69.0165ZM70.5635 121.573H72.5128C73.1648 121.573 73.7892 121.484 74.3719 121.312C74.9546 121.139 75.4679 120.871 75.9119 120.52C76.3489 120.169 76.7027 119.728 76.9594 119.205C77.2161 118.675 77.3479 118.062 77.3479 117.36C77.3479 116.995 77.2854 116.575 77.1675 116.086C77.0496 115.605 76.8276 115.143 76.5015 114.703C76.1755 114.262 75.7177 113.897 75.1419 113.594C74.5592 113.291 73.81 113.14 72.8874 113.14H70.5704V121.58L70.5635 121.573Z" fill="#5B6FB5"/>
<path d="M87.9549 120.644C88.2324 121.057 88.5931 121.367 89.0232 121.566C89.4533 121.766 89.9042 121.862 90.369 121.862C90.6257 121.862 90.8893 121.821 91.1598 121.745C91.4304 121.663 91.6731 121.546 91.8951 121.387C92.1171 121.229 92.2975 121.029 92.4362 120.795C92.575 120.561 92.6443 120.286 92.6443 119.983C92.6443 119.549 92.5056 119.212 92.2281 118.985C91.9506 118.758 91.6038 118.565 91.1876 118.406C90.7713 118.255 90.3204 118.104 89.8348 117.959C89.3493 117.814 88.8983 117.615 88.4821 117.36C88.0659 117.105 87.7191 116.761 87.4416 116.327C87.1641 115.894 87.0254 115.315 87.0254 114.579C87.0254 114.248 87.0947 113.897 87.2404 113.526C87.3861 113.154 87.615 112.81 87.9272 112.5C88.2393 112.19 88.6347 111.935 89.1273 111.722C89.6129 111.515 90.2025 111.412 90.8893 111.412C91.5136 111.412 92.1102 111.495 92.679 111.667C93.2479 111.839 93.7473 112.183 94.1774 112.706L92.9218 113.842C92.7276 113.546 92.457 113.305 92.1032 113.119C91.7495 112.934 91.3471 112.844 90.8962 112.844C90.4453 112.844 90.1123 112.899 89.8279 113.009C89.5435 113.119 89.3146 113.264 89.1411 113.443C88.9677 113.622 88.8498 113.808 88.7804 114.007C88.7111 114.207 88.6764 114.4 88.6764 114.565C88.6764 115.047 88.8151 115.412 89.0926 115.667C89.3701 115.921 89.7169 116.128 90.1331 116.293C90.5493 116.451 91.0003 116.596 91.4859 116.727C91.9714 116.851 92.4223 117.03 92.8386 117.264C93.2548 117.491 93.5947 117.801 93.8791 118.193C94.1566 118.579 94.2953 119.116 94.2953 119.797C94.2953 120.341 94.1913 120.83 93.9832 121.27C93.7751 121.704 93.4906 122.076 93.1369 122.372C92.7831 122.668 92.3668 122.902 91.8813 123.06C91.3957 123.219 90.8823 123.301 90.3343 123.301C89.6059 123.301 88.9122 123.17 88.2532 122.916C87.6011 122.661 87.0809 122.269 86.6924 121.732L87.9619 120.644H87.9549Z" fill="#5B6FB5"/>
<path d="M102.779 123.294C101.912 123.294 101.107 123.143 100.379 122.84C99.6503 122.537 99.026 122.117 98.4987 121.587C97.9785 121.057 97.5692 120.424 97.2778 119.701C96.9795 118.978 96.8339 118.193 96.8339 117.353C96.8339 116.513 96.9795 115.729 97.2778 115.006C97.5761 114.283 97.9785 113.649 98.4987 113.119C99.019 112.589 99.6433 112.169 100.379 111.866C101.107 111.564 101.912 111.412 102.779 111.412C103.646 111.412 104.451 111.564 105.179 111.866C105.907 112.169 106.532 112.589 107.059 113.119C107.579 113.649 107.989 114.283 108.28 115.006C108.578 115.729 108.724 116.513 108.724 117.353C108.724 118.193 108.578 118.978 108.28 119.701C107.982 120.424 107.579 121.057 107.059 121.587C106.539 122.117 105.914 122.537 105.179 122.84C104.444 123.143 103.646 123.294 102.779 123.294ZM102.779 121.855C103.431 121.855 104.028 121.738 104.548 121.498C105.068 121.257 105.526 120.933 105.901 120.534C106.275 120.128 106.566 119.653 106.768 119.102C106.969 118.551 107.073 117.966 107.073 117.353C107.073 116.741 106.969 116.155 106.768 115.605C106.566 115.054 106.275 114.579 105.901 114.173C105.526 113.767 105.075 113.443 104.548 113.202C104.021 112.961 103.431 112.844 102.779 112.844C102.127 112.844 101.53 112.961 101.01 113.202C100.483 113.443 100.032 113.767 99.6572 114.173C99.2826 114.579 98.9913 115.054 98.7901 115.605C98.5889 116.155 98.4849 116.741 98.4849 117.353C98.4849 117.966 98.5889 118.558 98.7901 119.102C98.9913 119.646 99.2826 120.128 99.6572 120.534C100.032 120.94 100.483 121.263 101.01 121.498C101.537 121.738 102.127 121.855 102.779 121.855Z" fill="#5B6FB5"/>
<path d="M111.797 111.694H114.1L117.721 120.265H117.784L121.377 111.694H123.68V123.012H122.133V113.711H122.098L118.248 123.012H117.215L113.365 113.711H113.33V123.012H111.783V111.694H111.797Z" fill="#5B6FB5"/>
<path d="M127.468 111.694H134.828V113.133H129.015V116.506H134.425V117.945H129.015V121.573H135.119V123.012H127.468V111.694Z" fill="#5B6FB5"/>
<path d="M143.721 111.694H145.268V121.573H150.505V123.012H143.728V111.694H143.721Z" fill="#5B6FB5"/>
<path d="M158.282 123.294C157.415 123.294 156.61 123.143 155.882 122.84C155.153 122.537 154.529 122.117 154.002 121.587C153.481 121.057 153.072 120.424 152.781 119.701C152.482 118.978 152.337 118.193 152.337 117.353C152.337 116.513 152.482 115.729 152.781 115.006C153.079 114.283 153.481 113.649 154.002 113.119C154.522 112.589 155.146 112.169 155.882 111.866C156.61 111.564 157.415 111.412 158.282 111.412C159.149 111.412 159.954 111.564 160.682 111.866C161.41 112.169 162.035 112.589 162.562 113.119C163.082 113.649 163.491 114.283 163.79 115.006C164.088 115.729 164.234 116.513 164.234 117.353C164.234 118.193 164.088 118.978 163.79 119.701C163.491 120.424 163.089 121.057 162.562 121.587C162.042 122.117 161.417 122.537 160.682 122.84C159.954 123.143 159.149 123.294 158.282 123.294ZM158.282 121.855C158.934 121.855 159.524 121.738 160.051 121.498C160.578 121.257 161.029 120.933 161.403 120.534C161.778 120.134 162.069 119.653 162.271 119.102C162.472 118.551 162.576 117.966 162.576 117.353C162.576 116.741 162.472 116.155 162.271 115.605C162.069 115.054 161.778 114.579 161.403 114.173C161.029 113.767 160.578 113.443 160.051 113.202C159.524 112.961 158.934 112.844 158.282 112.844C157.63 112.844 157.033 112.961 156.513 113.202C155.993 113.443 155.535 113.767 155.16 114.173C154.786 114.579 154.494 115.054 154.293 115.605C154.092 116.155 153.988 116.741 153.988 117.353C153.988 117.966 154.092 118.558 154.293 119.102C154.494 119.653 154.786 120.128 155.16 120.534C155.535 120.94 155.986 121.263 156.513 121.498C157.04 121.732 157.63 121.855 158.282 121.855Z" fill="#5B6FB5"/>
<path d="M165.85 111.694H167.639L170.99 120.899H171.025L174.507 111.694H176.2L171.704 123.012H170.255L165.857 111.694H165.85Z" fill="#5B6FB5"/>
<path d="M178.524 111.694H185.885V113.133H180.071V116.506H185.482V117.945H180.071V121.573H186.176V123.012H178.524V111.694Z" fill="#5B6FB5"/>
</g>
<defs>
<clipPath id="clip0_1_6470">
<rect width="220" height="131" fill="white"/>
</clipPath>
</defs>
</svg>
