<svg width="15" height="15" viewBox="0 0 15 15" fill="none" xmlns="http://www.w3.org/2000/svg">
<g clip-path="url(#clip0_1_6882)">
<path d="M13.129 10.9915L9.07255 7.3276M5.58311 7.3276L1.52666 10.9915M1.22131 4.27434L6.20723 7.76448C6.61098 8.0471 6.81285 8.18842 7.03244 8.24315C7.2264 8.2915 7.42926 8.2915 7.62322 8.24315C7.84281 8.18842 8.04468 8.0471 8.44842 7.76448L13.4343 4.27434M4.15244 12.2128H10.5032C11.5292 12.2128 12.0422 12.2128 12.4341 12.0131C12.7788 11.8375 13.059 11.5572 13.2347 11.2125C13.4343 10.8207 13.4343 10.3077 13.4343 9.28168V5.37351C13.4343 4.34752 13.4343 3.83452 13.2347 3.44265C13.059 3.09794 12.7788 2.81769 12.4341 2.64205C12.0422 2.44238 11.5292 2.44238 10.5032 2.44238H4.15244C3.12645 2.44238 2.61346 2.44238 2.22158 2.64205C1.87687 2.81769 1.59662 3.09794 1.42098 3.44265C1.22131 3.83452 1.22131 4.34752 1.22131 5.37351V9.28168C1.22131 10.3077 1.22131 10.8207 1.42098 11.2125C1.59662 11.5572 1.87687 11.8375 2.22158 12.0131C2.61346 12.2128 3.12645 12.2128 4.15244 12.2128Z" stroke="white" stroke-width="1.2213" stroke-linecap="round" stroke-linejoin="round"/>
</g>
<defs>
<clipPath id="clip0_1_6882">
<rect width="14.6556" height="14.6556" fill="white"/>
</clipPath>
</defs>
</svg>
