<svg width="34" height="34" viewBox="0 0 34 34" fill="none" xmlns="http://www.w3.org/2000/svg">
<path fill-rule="evenodd" clip-rule="evenodd" d="M17 0C26.1641 0 33.6016 7.4375 33.6016 16.6016C33.6016 25.7656 26.1641 33.2031 17 33.2031C7.83594 33.2031 0.398438 25.7656 0.398438 16.6016C0.398438 7.4375 7.83594 0 17 0Z" fill="#DD6C09"/>
<path fill-rule="evenodd" clip-rule="evenodd" d="M17 1.0625C25.6328 1.0625 32.5391 8.03516 32.5391 16.6016C32.5391 25.2344 25.5664 32.1406 17 32.1406C8.36719 32.1406 1.46094 25.168 1.46094 16.6016C1.46094 7.96875 8.43359 1.0625 17 1.0625Z" fill="#F68622"/>
<path fill-rule="evenodd" clip-rule="evenodd" d="M17 2.32422C24.9023 2.32422 31.2773 8.69922 31.2773 16.6016C31.2773 24.5039 24.9023 30.8789 17 30.8789C9.09766 30.8789 2.72266 24.5039 2.72266 16.6016C2.72266 8.69922 9.09766 2.32422 17 2.32422Z" fill="#F9A962"/>
<path fill-rule="evenodd" clip-rule="evenodd" d="M17 6.30859C22.6445 6.30859 27.293 10.8906 27.293 16.6016C27.293 22.2461 22.7109 26.8945 17 26.8945C11.3555 26.8945 6.70703 22.3125 6.70703 16.6016C6.70703 10.957 11.2891 6.30859 17 6.30859Z" fill="#F68521"/>
<path fill-rule="evenodd" clip-rule="evenodd" d="M17 2.25781C24.7031 2.25781 30.9453 8.5 30.9453 16.2031C30.9453 16.7344 30.9453 17.332 30.8789 17.8633C30.082 10.957 24.1719 5.57812 17 5.57812C9.82812 5.57812 3.98438 10.957 3.12109 17.8633C3.05469 17.332 3.05469 16.8008 3.05469 16.2031C3.05469 8.5 9.29688 2.25781 17 2.25781Z" fill="#FABE89"/>
<path fill-rule="evenodd" clip-rule="evenodd" d="M8.10156 16.6016C8.10156 15.4727 9.03125 14.6094 10.0938 14.6094H23.7734C24.9023 14.6094 25.7656 15.5391 25.7656 16.6016C25.7656 17.7305 24.8359 18.5938 23.7734 18.5938H10.0938C8.96484 18.5938 8.10156 17.6641 8.10156 16.6016Z" fill="#FEFEFE"/>
</svg>
