<svg width="35" height="35" viewBox="0 0 35 35" fill="none" xmlns="http://www.w3.org/2000/svg">
<g clip-path="url(#clip0_47_72)">
<path d="M17.3978 33.5618C26.4324 33.5618 33.7563 26.2378 33.7563 17.2032C33.7563 8.16868 26.4324 0.844727 17.3978 0.844727C8.36326 0.844727 1.03931 8.16868 1.03931 17.2032C1.03931 26.2378 8.36326 33.5618 17.3978 33.5618Z" fill="#5B6FB5"/>
<path d="M24.7757 14.9576H19.6436V9.82558C19.6436 9.29406 19.2128 8.86328 18.6813 8.86328H16.1153C15.5837 8.86328 15.153 9.29406 15.153 9.82558V14.9576H10.0209C9.48937 14.9576 9.05859 15.3884 9.05859 15.9199V18.486C9.05859 19.0175 9.48937 19.4483 10.0209 19.4483H15.153V24.5804C15.153 25.1119 15.5837 25.5427 16.1153 25.5427H18.6813C19.2128 25.5427 19.6436 25.1119 19.6436 24.5804V19.4483H24.7757C25.3072 19.4483 25.738 19.0175 25.738 18.486V15.9199C25.738 15.3884 25.3072 14.9576 24.7757 14.9576Z" fill="white"/>
<path d="M24.7761 14.6373H19.9648V9.826C19.9648 9.11745 19.3903 8.54297 18.6818 8.54297H16.1157C15.4071 8.54297 14.8326 9.11745 14.8326 9.826V14.6373H10.0213C9.31276 14.6373 8.73828 15.2118 8.73828 15.9204V18.4864C8.73828 19.195 9.31276 19.7695 10.0213 19.7695H14.8326V24.5808C14.8326 25.2894 15.4071 25.8638 16.1157 25.8638H18.6818C19.3903 25.8638 19.9648 25.2894 19.9648 24.5808V19.7695H24.7761C25.4847 19.7695 26.0592 19.195 26.0592 18.4864V15.9204C26.0592 15.2118 25.4847 14.6373 24.7761 14.6373ZM25.4177 18.4864C25.4177 18.8409 25.1306 19.1279 24.7762 19.1279H19.3234V24.5807C19.3234 24.9352 19.0363 25.2222 18.6819 25.2222H16.1158C15.7614 25.2222 15.4743 24.9352 15.4743 24.5807V19.1279H10.0215C9.66711 19.1279 9.38003 18.8409 9.38003 18.4864V15.9204C9.38003 15.566 9.66711 15.2789 10.0215 15.2789H15.4743V9.82607C15.4743 9.47166 15.7614 9.18459 16.1158 9.18459H18.6819C19.0363 9.18459 19.3234 9.47166 19.3234 9.82607V15.2789H24.7762C25.1306 15.2789 25.4177 15.566 25.4177 15.9204V18.4864Z" fill="#171C1F"/>
<g opacity="0.1">
<path d="M33.1136 16.8828C33.1136 25.5631 26.0769 32.5998 17.3967 32.5998C8.71643 32.5998 1.67969 25.563 1.67969 16.8828C1.67969 16.9887 1.67969 17.0945 1.67969 17.2036C1.67969 25.8838 8.71643 32.9205 17.3967 32.9205C26.0769 32.9205 33.1136 25.8838 33.1136 17.2036C33.1136 17.0945 33.1136 16.9887 33.1136 16.8828ZM19.9627 19.7696V21.0527H24.7741C25.4826 21.0527 26.0571 20.4782 26.0571 19.7696V18.4866C26.0571 19.1951 25.4826 19.7696 24.7741 19.7696H19.9627ZM16.1136 25.8639C15.4051 25.8639 14.8306 25.2894 14.8306 24.5809V25.8639C14.8306 26.5725 15.4051 27.147 16.1136 27.147H18.6797C19.3882 27.147 19.9627 26.5725 19.9627 25.8639V24.5809C19.9627 25.2894 19.3882 25.8639 18.6797 25.8639H16.1136ZM10.0193 21.0526H14.8306V19.7696H10.0193C9.31076 19.7696 8.73628 19.1951 8.73628 18.4865V19.7696C8.73628 20.4781 9.31076 21.0526 10.0193 21.0526ZM10.0193 19.1281H15.4721V18.4866H10.0193C9.66491 18.4866 9.37783 18.1995 9.37783 17.8451V18.4866C9.37777 18.841 9.66484 19.1281 10.0193 19.1281ZM25.4155 18.4866V17.8451C25.4155 18.1995 25.1285 18.4866 24.7741 18.4866H19.3212V19.1281H24.7741C25.1285 19.1281 25.4155 18.841 25.4155 18.4866ZM15.4721 24.5809C15.4721 24.9353 15.7592 25.2224 16.1136 25.2224H18.6797C19.0341 25.2224 19.3212 24.9353 19.3212 24.5809V23.9394C19.3212 24.2938 19.0341 24.5809 18.6797 24.5809H16.1136C15.7592 24.5809 15.4721 24.2938 15.4721 23.9394V24.5809Z" fill="black"/>
</g>
<path d="M17.3984 0.203125C8.00966 0.203125 0.398438 7.81434 0.398438 17.2031C0.398438 26.5919 8.00966 34.2031 17.3984 34.2031C26.7872 34.2031 34.3984 26.5919 34.3984 17.2031C34.3984 7.81434 26.7872 0.203125 17.3984 0.203125ZM17.3984 32.9201C8.71814 32.9201 1.68147 25.8834 1.68147 17.2031C1.68147 8.52283 8.71814 1.48616 17.3984 1.48616C26.0787 1.48616 33.1154 8.52283 33.1154 17.2031C33.1154 25.8834 26.0787 32.9201 17.3984 32.9201Z" fill="#171C1F"/>
</g>
<defs>
<clipPath id="clip0_47_72">
<rect width="34" height="34" fill="white" transform="translate(0.398438 0.203125)"/>
</clipPath>
</defs>
</svg>
