<svg width="28" height="29" viewBox="0 0 28 29" fill="none" xmlns="http://www.w3.org/2000/svg">
<g clip-path="url(#clip0_359_513)">
<path d="M13.9994 27.9718C21.4397 27.9718 27.4712 21.9403 27.4712 14.5C27.4712 7.05982 21.4397 1.02832 13.9994 1.02832C6.55921 1.02832 0.52771 7.05982 0.52771 14.5C0.52771 21.9403 6.55921 27.9718 13.9994 27.9718Z" fill="#5B6FB5"/>
<path d="M20.0753 12.6507H15.8489V8.42431C15.8489 7.98659 15.4942 7.63184 15.0564 7.63184H12.9432C12.5055 7.63184 12.1507 7.98659 12.1507 8.42431V12.6507H7.92431C7.48659 12.6507 7.13184 13.0055 7.13184 13.4432V15.5564C7.13184 15.9942 7.48659 16.3489 7.92431 16.3489H12.1507V20.5753C12.1507 21.013 12.5055 21.3678 12.9432 21.3678H15.0564C15.4942 21.3678 15.8489 21.013 15.8489 20.5753V16.3489H20.0753C20.513 16.3489 20.8678 15.9942 20.8678 15.5564V13.4432C20.8678 13.0055 20.513 12.6507 20.0753 12.6507Z" fill="white"/>
<path d="M20.0758 12.3871H16.1135V8.42478C16.1135 7.84127 15.6404 7.36816 15.0569 7.36816H12.9437C12.3602 7.36816 11.8871 7.84127 11.8871 8.42478V12.3871H7.92478C7.34127 12.3871 6.86816 12.8602 6.86816 13.4437V15.5569C6.86816 16.1404 7.34127 16.6135 7.92478 16.6135H11.8871V20.5758C11.8871 21.1593 12.3602 21.6324 12.9437 21.6324H15.0569C15.6404 21.6324 16.1135 21.1593 16.1135 20.5758V16.6135H20.0758C20.6593 16.6135 21.1324 16.1404 21.1324 15.5569V13.4437C21.1324 12.8602 20.6593 12.3871 20.0758 12.3871ZM20.6041 15.5569C20.6041 15.8488 20.3677 16.0852 20.0758 16.0852H15.5853V20.5757C15.5853 20.8676 15.3489 21.104 15.057 21.104H12.9438C12.6519 21.104 12.4155 20.8676 12.4155 20.5757V16.0852H7.92494C7.63308 16.0852 7.39666 15.8488 7.39666 15.5569V13.4437C7.39666 13.1518 7.63308 12.9154 7.92494 12.9154H12.4155V8.42484C12.4155 8.13297 12.6519 7.89655 12.9438 7.89655H15.057C15.3489 7.89655 15.5853 8.13297 15.5853 8.42484V12.9154H20.0758C20.3677 12.9154 20.6041 13.1518 20.6041 13.4437V15.5569Z" fill="#171C1F"/>
<g opacity="0.1">
<path d="M26.9419 14.2363C26.9419 21.3848 21.147 27.1797 13.9986 27.1797C6.85014 27.1797 1.05518 21.3848 1.05518 14.2363C1.05518 14.3235 1.05518 14.4107 1.05518 14.5005C1.05518 21.6489 6.85014 27.4439 13.9986 27.4439C21.147 27.4439 26.9419 21.6489 26.9419 14.5005C26.9419 14.4107 26.9419 14.3235 26.9419 14.2363ZM16.1118 16.6137V17.6703H20.0741C20.6576 17.6703 21.1307 17.1972 21.1307 16.6137V15.5571C21.1307 16.1406 20.6576 16.6137 20.0741 16.6137H16.1118ZM12.9419 21.6325C12.3584 21.6325 11.8853 21.1594 11.8853 20.5759V21.6325C11.8853 22.2161 12.3584 22.6892 12.9419 22.6892H15.0552C15.6387 22.6892 16.1118 22.2161 16.1118 21.6325V20.5759C16.1118 21.1594 15.6387 21.6325 15.0552 21.6325H12.9419ZM7.9231 17.6703H11.8854V16.6136H7.9231C7.33959 16.6136 6.86649 16.1405 6.86649 15.557V16.6136C6.86649 17.1972 7.33959 17.6703 7.9231 17.6703ZM7.9231 16.0854H12.4137V15.5571H7.9231C7.63124 15.5571 7.39482 15.3207 7.39482 15.0288V15.5571C7.39477 15.849 7.63118 16.0854 7.9231 16.0854ZM20.6023 15.5571V15.0288C20.6023 15.3207 20.3659 15.5571 20.0741 15.5571H15.5835V16.0854H20.0741C20.3659 16.0854 20.6023 15.849 20.6023 15.5571ZM12.4137 20.5759C12.4137 20.8678 12.6501 21.1042 12.9419 21.1042H15.0552C15.347 21.1042 15.5835 20.8678 15.5835 20.5759V20.0476C15.5835 20.3395 15.347 20.5759 15.0552 20.5759H12.9419C12.6501 20.5759 12.4137 20.3395 12.4137 20.0476V20.5759Z" fill="black"/>
</g>
<path d="M14 0.5C6.26806 0.5 0 6.76806 0 14.5C0 22.2319 6.26806 28.5 14 28.5C21.7319 28.5 28 22.2319 28 14.5C28 6.76806 21.7319 0.5 14 0.5ZM14 27.4434C6.85152 27.4434 1.05662 21.6485 1.05662 14.5C1.05662 7.35152 6.85152 1.55662 14 1.55662C21.1485 1.55662 26.9434 7.35152 26.9434 14.5C26.9434 21.6485 21.1485 27.4434 14 27.4434Z" fill="#171C1F"/>
</g>
<defs>
<clipPath id="clip0_359_513">
<rect width="28" height="28" fill="white" transform="translate(0 0.5)"/>
</clipPath>
</defs>
</svg>
