<svg width="26" height="26" viewBox="0 0 26 26" fill="none" xmlns="http://www.w3.org/2000/svg">
<g clip-path="url(#clip0_1_6816)">
<path d="M0.415773 25.2882C0.836901 25.7094 1.4762 25.8228 2.01648 25.5722L16.6795 19.2593C17.3972 18.9265 17.5649 17.9811 17.0056 17.4217L8.31397 8.73012C7.75456 8.17072 6.80921 8.33844 6.47643 9.05619L0.131772 23.6875C-0.118769 24.2278 -0.00535576 24.8671 0.415773 25.2882Z" fill="#FFE266"/>
<path d="M12.6304 17.8763L1.85167 22.5169C1.47072 22.6936 1.02327 22.6235 0.71415 22.3444L0.131711 23.6875C-0.11883 24.2279 -0.00541679 24.8671 0.415712 25.2882C0.83684 25.7094 1.47614 25.8228 2.01642 25.5722L16.5388 19.3198C16.2043 19.1857 12.6848 17.8511 12.6304 17.8763Z" fill="#EFAA66"/>
<path d="M17.1071 18.6663C18.109 17.6644 16.6523 14.5832 13.8534 11.7843C11.0545 8.98534 7.97328 7.52861 6.97134 8.53055C5.9694 9.53249 7.42613 12.6137 10.225 15.4126C13.024 18.2115 16.1052 19.6683 17.1071 18.6663Z" fill="#FFE266"/>
<path d="M14.5679 17.3745C15.2251 16.7172 14.1605 14.587 12.19 12.6165C10.2195 10.646 8.0893 9.58139 7.43204 10.2386C6.77479 10.8959 7.83938 13.0261 9.80989 14.9966C11.7804 16.9671 13.9106 18.0317 14.5679 17.3745Z" fill="#EFAA66"/>
<path d="M16.2053 19.5042C14.6081 19.5042 12.1345 18.0565 9.85899 15.7809C7.7927 13.7146 6.37676 11.4389 6.16395 9.84202C6.12596 9.55666 6.32636 9.29455 6.61172 9.25655C6.89681 9.21866 7.15918 9.41896 7.19718 9.70432C7.3785 11.0645 8.71267 13.1604 10.5961 15.0438C13.0027 17.4504 15.2218 18.4996 16.2647 18.4607C16.552 18.4502 16.7947 18.6732 16.8062 18.9608C16.8176 19.2484 16.5937 19.4909 16.306 19.5023C16.2729 19.5035 16.2391 19.5042 16.2053 19.5042Z" fill="#D0844B"/>
<path d="M10.6328 11.4588C10.5105 11.3364 10.4161 11.1827 10.3637 11.0051L9.88173 9.37377C9.69968 8.75771 9.86396 8.09767 10.3104 7.65126L11.1865 6.77513C11.633 6.32867 12.293 6.16444 12.9091 6.34649L14.6639 6.84179L14.0721 4.73015C13.9043 4.16251 14.2286 3.56642 14.7962 3.3987C15.3639 3.23097 15.96 3.55521 16.1277 4.12285L16.6097 5.7542C16.7917 6.37031 16.6275 7.03036 16.181 7.47671L15.3049 8.35285C14.8585 8.79925 14.1985 8.96348 13.5824 8.78148L11.8096 8.20337L12.4193 10.3978C12.5871 10.9655 12.2628 11.5616 11.6952 11.7293C11.3051 11.8445 10.9015 11.7275 10.6328 11.4588Z" fill="#CAB4EF"/>
<path d="M14.6639 6.84167L12.9091 6.34637C12.3795 6.18991 11.8177 6.28946 11.3867 6.6039C11.5074 7.08637 11.6609 7.72818 11.8095 8.2032L13.5824 8.78131C14.137 8.94517 14.7272 8.82827 15.1651 8.47761C15.01 7.99206 14.8115 7.32951 14.6639 6.84167Z" fill="#A183E2"/>
<path d="M17.4201 10.6953C17.5425 10.8176 17.6962 10.912 17.8738 10.9645L19.5051 11.4464C20.1211 11.6284 20.7812 11.4642 21.2276 11.0178L22.1038 10.1416C22.5502 9.69518 22.7145 9.03513 22.5324 8.41908L22.0371 6.6642L24.1487 7.25602C24.7164 7.42374 25.3125 7.09951 25.4803 6.53187C25.648 5.96423 25.3237 5.36814 24.7561 5.20041L23.1248 4.71846C22.5086 4.53646 21.8486 4.70074 21.4022 5.1471L20.5261 6.02323C20.0797 6.46964 19.9155 7.12968 20.0975 7.74574L20.6755 9.51855L18.4811 8.9088C17.9134 8.74107 17.3173 9.06531 17.1496 9.63295C17.0343 10.0231 17.1514 10.4266 17.4201 10.6953Z" fill="#F7C4DB"/>
<path d="M22.5324 8.41978L22.0371 6.6649C21.5265 6.55488 20.8123 6.4141 20.3027 6.2998C20.0298 6.71963 19.95 7.24745 20.0974 7.7465L20.6755 9.5193C21.204 9.64981 21.7633 9.73982 22.2708 9.94762C22.5884 9.51597 22.6895 8.95156 22.5324 8.41978Z" fill="#EF8BBD"/>
<path d="M19.9153 1.88201C19.5754 2.22183 19.0244 2.22183 18.6846 1.88201C18.3448 1.54218 18.3448 0.991172 18.6846 0.651351C19.0244 0.311529 19.5754 0.311529 19.9153 0.651351C20.2551 0.991224 20.2551 1.54218 19.9153 1.88201Z" fill="#FFA585"/>
<path d="M21.2284 16.339C21.709 16.339 22.0986 15.9494 22.0986 15.4688C22.0986 14.9882 21.709 14.5986 21.2284 14.5986C20.7478 14.5986 20.3582 14.9882 20.3582 15.4688C20.3582 15.9494 20.7478 16.339 21.2284 16.339Z" fill="#78EAC4"/>
<path d="M16.4679 16.2424C16.1281 16.5822 15.5771 16.5822 15.2373 16.2424C14.8974 15.9025 14.8974 15.3515 15.2373 15.0117C15.5771 14.6719 16.1281 14.6719 16.4679 15.0117C16.8077 15.3516 16.8077 15.9025 16.4679 16.2424Z" fill="#78EAC4"/>
<path d="M16.4679 16.2424C16.1281 16.5822 15.5771 16.5822 15.2373 16.2424C14.8974 15.9025 14.8974 15.3515 15.2373 15.0117C15.5771 14.6719 16.1281 14.6719 16.4679 15.0117C16.8077 15.3516 16.8077 15.9025 16.4679 16.2424Z" fill="#8BB6EF"/>
<path d="M4.73791 18.7936C4.66917 18.7936 4.59922 18.7798 4.53209 18.7509C4.26769 18.6371 4.14562 18.3305 4.2595 18.0661L4.91955 16.5331C5.03338 16.2687 5.34005 16.1464 5.60435 16.2605C5.86876 16.3743 5.99082 16.6809 5.87694 16.9453L5.21689 18.4783C5.13199 18.6755 4.93982 18.7936 4.73791 18.7936Z" fill="white"/>
<path d="M6.13626 15.5452C6.06751 15.5452 5.99762 15.5315 5.93038 15.5026C5.66603 15.3887 5.54397 15.0822 5.65785 14.8177L5.85903 14.3504C5.97286 14.0861 6.27933 13.9638 6.54389 14.0779C6.80824 14.1917 6.9303 14.4983 6.81648 14.7627L6.61529 15.23C6.53034 15.4271 6.33812 15.5452 6.13626 15.5452Z" fill="white"/>
<path d="M10.2268 0.423488L10.6549 1.62735C10.6733 1.6789 10.7095 1.71976 10.7554 1.7404L11.8249 2.2223C11.976 2.29037 11.976 2.53111 11.8249 2.59923L10.7554 3.08113C10.7095 3.10177 10.6733 3.14263 10.6549 3.19413L10.2268 4.39799C10.1663 4.56806 9.95239 4.56806 9.89193 4.39799L9.46382 3.19413C9.44547 3.14258 9.4092 3.10172 9.36338 3.08113L8.29383 2.59923C8.14274 2.53116 8.14274 2.29042 8.29383 2.2223L9.36338 1.7404C9.4092 1.71976 9.44547 1.6789 9.46382 1.62735L9.89193 0.423488C9.95239 0.253369 10.1663 0.253369 10.2268 0.423488Z" fill="#F7C4DB"/>
<path d="M24.7305 11.246L25.0481 12.1389C25.0617 12.1772 25.0886 12.2075 25.1226 12.2228L25.9159 12.5802C26.028 12.6307 26.028 12.8093 25.9159 12.8598L25.1226 13.2172C25.0886 13.2326 25.0617 13.2628 25.0481 13.3011L24.7305 14.1941C24.6856 14.3203 24.527 14.3203 24.4821 14.1941L24.1645 13.3011C24.1509 13.2628 24.124 13.2326 24.0901 13.2172L23.2967 12.8598C23.1846 12.8093 23.1846 12.6307 23.2967 12.5802L24.0901 12.2228C24.124 12.2075 24.1509 12.1772 24.1645 12.1389L24.4821 11.246C24.527 11.1198 24.6856 11.1198 24.7305 11.246Z" fill="#CAB4EF"/>
<path d="M18.8261 4.52135C19.0488 4.52135 19.2293 4.3408 19.2293 4.1181C19.2293 3.89539 19.0488 3.71484 18.8261 3.71484C18.6034 3.71484 18.4228 3.89539 18.4228 4.1181C18.4228 4.3408 18.6034 4.52135 18.8261 4.52135Z" fill="#78EAC4"/>
<path d="M24.9315 1.62216C24.9817 1.21393 24.6914 0.842336 24.2831 0.792177C23.8749 0.742018 23.5032 1.03229 23.4531 1.44052C23.4029 1.84875 23.6932 2.22035 24.1015 2.27051C24.5097 2.32067 24.8814 2.03039 24.9315 1.62216Z" fill="#8BB6EF"/>
</g>
<defs>
<clipPath id="clip0_1_6816">
<rect width="26" height="26" fill="white"/>
</clipPath>
</defs>
</svg>
