<svg width="73" height="83" viewBox="0 0 73 83" fill="none" xmlns="http://www.w3.org/2000/svg">
<path fill-rule="evenodd" clip-rule="evenodd" d="M24.499 1.20621C13.8431 4.8804 7.72795 10.1721 2.97937 19.8302C-0.0884876 26.0705 -0.384519 39.3683 2.37885 46.8493C6.36138 57.6344 18.8587 66.801 31.7258 68.375L37.9328 69.1352L39.3369 82.2245C42.1147 82.2245 52.5459 75.1905 57.8697 69.7272C60.8566 66.6616 65.3248 60.3756 67.7994 55.7572C71.875 48.148 72.7715 36.4633 72.7715 36.4633C72.7715 36.4633 72.9322 24.9368 70.2824 19.6162C66.2588 11.5421 62.2799 7.47441 54.6616 3.64861C49.3923 1.00333 46.4875 0.355667 38.5515 0.0602601C32.4508 -0.167147 27.254 0.256455 24.499 1.20621Z" fill="#F68521"/>
<path d="M48.8076 36.0061C48.8076 37.0276 48.6483 38.0064 48.3297 38.9427C48.0112 39.8365 47.5334 40.6451 46.8962 41.3686C46.3046 42.0496 45.531 42.6028 44.5754 43.0284C43.6652 43.4115 42.5958 43.603 41.3671 43.603C40.912 43.603 40.4569 43.5604 40.0019 43.4753C39.5923 43.3902 39.2055 43.3051 38.8414 43.2199V42.5177C40.1611 42.3049 41.2306 41.7304 42.0497 40.7941C42.8688 39.8578 43.2784 38.7725 43.2784 37.5383C43.2784 37.3255 43.2556 37.0701 43.2101 36.7722C43.1646 36.4743 43.0964 36.2189 43.0054 36.0061H38.6366V26.4941H48.8076V36.0061ZM35.1553 36.0061C35.1553 37.0276 34.996 38.0064 34.6775 38.9427C34.3589 39.8365 33.8811 40.6451 33.244 41.3686C32.6524 42.0496 31.8788 42.6028 30.9231 43.0284C30.013 43.4115 28.9435 43.603 27.7148 43.603C27.2598 43.603 26.8047 43.5604 26.3496 43.4753C25.94 43.3902 25.5532 43.3051 25.1892 43.2199V42.5177C26.5089 42.3049 27.5783 41.7304 28.3974 40.7941C29.2166 39.8578 29.6261 38.7725 29.6261 37.5383C29.6261 37.3255 29.6034 37.0701 29.5579 36.7722C29.5124 36.4743 29.4441 36.2189 29.3531 36.0061H24.9844V26.4941H35.1553V36.0061Z" fill="white"/>
</svg>
