<svg width="116" height="19" viewBox="0 0 116 19" fill="none" xmlns="http://www.w3.org/2000/svg">
<path d="M10.4235 14.4325L14.7355 13.3397L16.5371 18.8922L10.4235 14.4325ZM20.347 7.25568H12.7567L10.4235 0.108398L8.09029 7.25568H0.5L6.64312 11.6858L4.30991 18.8331L10.453 14.403L14.2334 11.6858L20.347 7.25568Z" fill="#FFB404"/>
<path d="M34.2705 14.4325L38.5825 13.3397L40.3841 18.8922L34.2705 14.4325ZM44.194 7.25568H36.6037L34.2705 0.108398L31.9373 7.25568H24.347L30.4902 11.6858L28.157 18.8331L34.3001 14.403L38.0805 11.6858L44.194 7.25568Z" fill="#FFB404"/>
<path d="M58.1175 14.4325L62.4295 13.3397L64.231 18.8922L58.1175 14.4325ZM68.041 7.25568H60.4507L58.1175 0.108398L55.7843 7.25568H48.194L54.3371 11.6858L52.0039 18.8331L58.147 14.403L61.9274 11.6858L68.041 7.25568Z" fill="#FFB404"/>
<path d="M81.9645 14.4325L86.2765 13.3397L88.0781 18.8922L81.9645 14.4325ZM91.888 7.25568H84.2977L81.9645 0.108398L79.6313 7.25568H72.041L78.1841 11.6858L75.8509 18.8331L81.994 14.403L85.7744 11.6858L91.888 7.25568Z" fill="#FFB404"/>
<path d="M105.811 14.4325L110.123 13.3397L111.925 18.8922L105.811 14.4325ZM115.735 7.25568H108.145L105.811 0.108398L103.478 7.25568H95.8879L102.031 11.6858L99.6979 18.8331L105.841 14.403L109.621 11.6858L115.735 7.25568Z" fill="#FFB404"/>
</svg>
