<svg width="18" height="18" viewBox="0 0 18 18" fill="none" xmlns="http://www.w3.org/2000/svg">
<path d="M17 17L14.0909 14.0909M7.90908 14.8182C8.8164 14.8182 9.71483 14.6395 10.5531 14.2923C11.3913 13.945 12.153 13.4361 12.7945 12.7946C13.4361 12.153 13.945 11.3913 14.2922 10.5531C14.6395 9.71483 14.8182 8.8164 14.8182 7.90909C14.8182 7.00178 14.6395 6.10335 14.2922 5.2651C13.945 4.42685 13.4361 3.66519 12.7945 3.02363C12.153 2.38206 11.3913 1.87314 10.5531 1.52592C9.71483 1.17871 8.8164 1 7.90908 1C6.07668 1 4.31933 1.72792 3.02362 3.02363C1.72792 4.31933 1 6.07669 1 7.90909C1 9.74149 1.72792 11.4988 3.02362 12.7946C4.31933 14.0903 6.07668 14.8182 7.90908 14.8182Z" stroke="black" stroke-width="1.6" stroke-linecap="round" stroke-linejoin="round"/>
</svg>
