<svg width="20" height="20" viewBox="0 0 20 20" fill="none" xmlns="http://www.w3.org/2000/svg">
<path d="M4.47156 2.13856L3.20785 3.82352C2.95755 4.15725 2.8324 4.32412 2.8353 4.4638C2.83783 4.58535 2.89482 4.69933 2.99055 4.77428C3.10054 4.86041 3.30913 4.86041 3.7263 4.86041H15.7154C16.1326 4.86041 16.3411 4.86041 16.4511 4.77428C16.5469 4.69933 16.6039 4.58535 16.6064 4.4638C16.6093 4.32412 16.4841 4.15725 16.2338 3.82352L14.9701 2.13856M4.47156 2.13856C4.61414 1.94847 4.68542 1.85342 4.77577 1.78487C4.85578 1.72415 4.94639 1.67884 5.04298 1.65126C5.15203 1.62012 5.27084 1.62012 5.50846 1.62012H13.9332C14.1709 1.62012 14.2897 1.62012 14.3987 1.65126C14.4953 1.67884 14.5859 1.72415 14.6659 1.78487C14.7563 1.85342 14.8276 1.94847 14.9701 2.13856M4.47156 2.13856L2.94862 4.16915C2.75626 4.42563 2.66008 4.55387 2.59178 4.6951C2.53118 4.82041 2.48698 4.95302 2.46027 5.08963C2.43018 5.24359 2.43018 5.40389 2.43018 5.72449L2.43018 15.2294C2.43018 16.1367 2.43018 16.5904 2.60676 16.937C2.76209 17.2418 3.00994 17.4897 3.31479 17.645C3.66136 17.8216 4.11505 17.8216 5.02241 17.8216L14.4193 17.8216C15.3266 17.8216 15.7803 17.8216 16.1269 17.645C16.4317 17.4897 16.6796 17.2418 16.8349 16.937C17.0115 16.5904 17.0115 16.1367 17.0115 15.2294V5.72449C17.0115 5.40389 17.0115 5.24359 16.9814 5.08963C16.9547 4.95302 16.9105 4.82041 16.8499 4.6951C16.7816 4.55387 16.6854 4.42563 16.4931 4.16915L14.9701 2.13856M12.9611 8.10071C12.9611 8.96009 12.6198 9.78427 12.0121 10.3919C11.4044 10.9996 10.5802 11.341 9.72085 11.341C8.86147 11.341 8.03728 10.9996 7.42961 10.3919C6.82194 9.78427 6.48055 8.96009 6.48055 8.10071" stroke="black" stroke-width="1.5" stroke-linecap="round" stroke-linejoin="round"/>
</svg>
