<svg width="66" height="65" viewBox="0 0 66 65" fill="none" xmlns="http://www.w3.org/2000/svg">
<path d="M4.71085 14.5488H0V49.6536C0 51.3621 1.37811 52.747 3.07813 52.747H12.7568L14.073 22.2274L4.71085 14.5488Z" fill="#DF6A03"/>
<path d="M50.3157 14.5488L15.308 17.9117L9.67865 22.6857V49.6536C9.67865 51.3621 11.0568 52.747 12.7568 52.747H44.9151L47.817 50.6893L54.5373 48.4501V18.8802L50.3157 14.5488Z" fill="#F68521"/>
<path d="M62.5667 50.4337L49.9007 42.4716C47.8686 41.1941 45.2316 42.6623 45.2316 45.0711V47.7136C45.2316 48.2784 44.776 48.7362 44.2141 48.7362H31.0071C30.0847 48.7362 29.3369 49.4877 29.3369 50.4146V55.6514C29.3369 56.5783 30.0847 57.3298 31.0071 57.3298H44.2141C44.776 57.3298 45.2316 57.7877 45.2316 58.3524V60.9949C45.2316 63.4038 47.8686 64.8719 49.9007 63.5944L62.5667 55.6324C64.4774 54.4315 64.4774 51.6348 62.5667 50.4337Z" fill="url(#paint0_linear_1_6628)"/>
<path d="M9.67864 22.6864L0 14.5494C0 12.841 1.37811 11.4561 3.07813 11.4561H12.7568L14.073 13.5917V20.6265L9.67864 22.6864Z" fill="#F8A153"/>
<path d="M48.3748 12.5792L45.8624 11.4561H12.7566C11.0568 11.4562 9.6788 12.8411 9.6788 14.5494V22.6863L22.9502 33.8436C25.4495 35.9448 29.0878 35.9448 31.5872 33.8436L50.5375 17.912V15.662L48.3748 12.5792Z" fill="#F8A153"/>
<path d="M50.787 23.661C55.64 23.661 59.574 19.7074 59.574 14.8305C59.574 9.95355 55.64 6 50.787 6C45.9341 6 42 9.95355 42 14.8305C42 19.7074 45.9341 23.661 50.787 23.661Z" fill="#5B6FB5" stroke="white" stroke-width="2"/>
<path d="M48.8303 18.7122C48.5133 18.7122 48.2092 18.5857 47.9852 18.3604L45.3501 15.7123C44.8833 15.2433 44.8833 14.4827 45.3501 14.0137C45.8168 13.5447 46.5737 13.5447 47.0404 14.0137L48.8304 15.8126L53.2792 11.3518C53.7458 10.8827 54.5027 10.8827 54.9694 11.3518C55.4363 11.8208 55.4363 12.5814 54.9694 13.0504L49.6757 18.3604C49.4514 18.5857 49.1472 18.7122 48.8303 18.7122Z" fill="#DBEDFF"/>
<defs>
<linearGradient id="paint0_linear_1_6628" x1="31.0197" y1="43.8636" x2="55.7651" y2="68.0554" gradientUnits="userSpaceOnUse">
<stop stop-color="#5B6FB5"/>
<stop offset="1" stop-color="#8B46FF"/>
</linearGradient>
</defs>
</svg>
