<svg width="70" height="69" viewBox="0 0 70 69" fill="none" xmlns="http://www.w3.org/2000/svg">
<path d="M57.1691 2.51189C42.389 1.61453 27.609 1.61453 12.829 2.51189C6.90085 2.87177 2.16039 7.54674 1.66925 13.4654C0.805654 23.8746 0.805518 34.2838 1.66911 44.693C2.16093 50.6221 6.9174 55.2903 12.856 55.6486C15.2134 55.7908 17.5707 55.9101 19.928 56.0072C21.2476 56.0615 22.4975 56.614 23.4314 57.5479L31.6639 65.7805C33.5058 67.6224 36.4923 67.6224 38.3342 65.7805L46.5668 57.5479C47.5007 56.614 48.7505 56.0616 50.0701 56.0072C52.4274 55.9101 54.7847 55.7908 57.142 55.6486C63.0806 55.2903 67.8371 50.6221 68.3289 44.693C69.1924 34.2838 69.1924 23.8746 68.3286 13.4654C67.8376 7.54674 63.097 2.87177 57.1691 2.51189Z" fill="#F68521"/>
<path d="M35.6924 67.1092C34.2663 67.3211 32.7622 66.8781 31.6643 65.7801L23.4317 57.5476C22.4978 56.6137 21.2481 56.0613 19.9287 56.0066C17.5714 55.9109 15.2142 55.7906 12.8569 55.6484C6.91733 55.2901 2.16182 50.6221 1.66959 44.6935C0.805449 34.2842 0.805449 23.875 1.66959 13.4656C2.13858 7.8118 6.48526 3.29284 12.0406 2.58594C8.17525 4.31559 5.34902 8.70875 4.99352 13.4656C4.21689 23.875 4.21689 34.2842 4.99352 44.6935C5.43653 50.6221 9.71895 55.2901 15.0651 55.6484C17.1872 55.7906 21.3602 55.9109 23.4823 56.0066C24.6705 56.0613 25.7958 56.6137 26.6367 57.5476L34.0475 65.7801C34.7175 66.524 35.2207 66.967 35.6924 67.1092Z" fill="#DF6A03"/>
<path d="M38.9277 29.2123L54.7704 38.359C56.8277 39.5468 59.3994 38.062 59.3994 35.6865V22.738C59.3994 20.3625 56.8277 18.8777 54.7704 20.0655L38.9277 29.2123Z" fill="url(#paint0_linear_1_6599)"/>
<path d="M43.571 42.3577C35.9181 42.8189 28.2653 42.8189 20.6125 42.3577C17.7276 42.1837 15.4085 39.9167 15.1603 37.0373C14.7109 31.8209 14.7109 26.6043 15.1603 21.3879C15.4083 18.5084 17.7276 16.2415 20.6125 16.0676C28.2653 15.6064 35.9181 15.6064 43.571 16.0676C46.4559 16.2415 48.775 18.5085 49.0231 21.3879C49.4726 26.6043 49.4726 31.8209 49.0231 37.0373C48.775 39.9169 46.4559 42.1837 43.571 42.3577Z" fill="url(#paint1_linear_1_6599)"/>
<path d="M49.0238 37.04C48.7736 39.9169 46.4546 42.1825 43.571 42.3575C35.9181 42.8183 28.2653 42.8183 20.6126 42.3575C17.7289 42.1825 15.41 39.9169 15.1611 37.04C16.2017 37.5104 17.4897 37.8057 18.8953 37.855C27.6925 38.1571 36.491 38.1571 45.2883 37.855C46.6939 37.8057 47.9833 37.5104 49.0238 37.04Z" fill="#744CD6"/>
<path d="M37.7668 27.2269L31.6567 23.6993C30.1283 22.8168 28.2178 23.9198 28.2178 25.6847V32.7401C28.2178 34.505 30.1283 35.608 31.6567 34.7255L37.7668 31.1979C39.2952 30.3154 39.2952 28.1094 37.7668 27.2269Z" fill="#F68521"/>
<path d="M30.5096 36.0634C31.0794 36.0634 31.6492 35.9134 32.1687 35.6136L38.2788 32.0859C39.3177 31.4862 39.9379 30.4119 39.9379 29.2124C39.9379 28.0128 39.3177 26.9385 38.2788 26.3388L32.1687 22.8112C31.1299 22.2115 29.8895 22.2113 28.8505 22.8112C27.8116 23.4109 27.1914 24.4852 27.1914 25.6847V32.74C27.1914 33.9396 27.8116 35.0139 28.8505 35.6137C29.3699 35.9134 29.9397 36.0634 30.5096 36.0634ZM29.2425 25.6847C29.2425 25.0244 29.6855 24.6972 29.8761 24.5873C29.9919 24.5204 30.2237 24.413 30.5162 24.413C30.705 24.413 30.919 24.4578 31.1433 24.5873L37.2534 28.115C37.8254 28.4452 37.8871 28.9924 37.8871 29.2124C37.8871 29.4324 37.8254 29.9796 37.2534 30.3098L31.1433 33.8374C30.5713 34.1676 30.0667 33.9474 29.8761 33.8374C29.6855 33.7275 29.2425 33.4004 29.2425 32.74V25.6847Z" fill="black"/>
<defs>
<linearGradient id="paint0_linear_1_6599" x1="39.9216" y1="21.2631" x2="59.7214" y2="34.45" gradientUnits="userSpaceOnUse">
<stop stop-color="#5B6FB5"/>
<stop offset="1" stop-color="#8B46FF"/>
</linearGradient>
<linearGradient id="paint1_linear_1_6599" x1="16.4999" y1="18.0005" x2="45.9999" y2="41.5005" gradientUnits="userSpaceOnUse">
<stop stop-color="#5B6FB5"/>
<stop offset="1" stop-color="#8B46FF"/>
</linearGradient>
</defs>
</svg>
