<svg width="18" height="20" viewBox="0 0 18 20" fill="none" xmlns="http://www.w3.org/2000/svg">
<path d="M16.3406 18.5915C16.3406 15.1582 12.9251 12.3815 8.72004 12.3815C4.51499 12.3815 1.09949 15.1582 1.09949 18.5915M8.72004 9.72006C9.89647 9.72006 11.0247 9.25273 11.8566 8.42087C12.6884 7.58901 13.1558 6.46077 13.1558 5.28435C13.1558 4.10792 12.6884 2.97968 11.8566 2.14782C11.0247 1.31597 9.89647 0.848633 8.72004 0.848633C7.54362 0.848633 6.41538 1.31597 5.58352 2.14782C4.75166 2.97968 4.28433 4.10792 4.28433 5.28435C4.28433 6.46077 4.75166 7.58901 5.58352 8.42087C6.41538 9.25273 7.54362 9.72006 8.72004 9.72006Z" stroke="black" stroke-width="1.5" stroke-linecap="round" stroke-linejoin="round"/>
</svg>
